<?xml version="1.0" encoding="UTF-8" standalone="no"?>
<!-- Created with Inkscape (http://www.inkscape.org/) -->

<svg
   width="512"
   height="512"
   viewBox="0 0 135.46667 135.46667"
   version="1.1"
   id="svg1"
   xml:space="preserve"
   inkscape:version="1.3.2 (091e20e, 2023-11-25)"
   sodipodi:docname="feather_tk_512.svg"
   xmlns:inkscape="http://www.inkscape.org/namespaces/inkscape"
   xmlns:sodipodi="http://sodipodi.sourceforge.net/DTD/sodipodi-0.dtd"
   xmlns="http://www.w3.org/2000/svg"
   xmlns:svg="http://www.w3.org/2000/svg"><sodipodi:namedview
     id="namedview1"
     pagecolor="#ffffff"
     bordercolor="#000000"
     borderopacity="0.25"
     inkscape:showpageshadow="2"
     inkscape:pageopacity="0.0"
     inkscape:pagecheckerboard="0"
     inkscape:deskcolor="#d1d1d1"
     inkscape:document-units="px"
     inkscape:current-layer="layer1"
     showgrid="false"
     inkscape:zoom="1.671875"
     inkscape:cx="256"
     inkscape:cy="256"
     inkscape:window-width="1872"
     inkscape:window-height="1027"
     inkscape:window-x="29"
     inkscape:window-y="27"
     inkscape:window-maximized="0" /><defs
     id="defs1" /><g
     inkscape:label="Layer 1"
     inkscape:groupmode="layer"
     id="layer1"><circle
       style="fill:#3c6ea0;stroke-width:1.32292;fill-opacity:1"
       id="path1"
       cx="67.733337"
       cy="67.733337"
       r="67.733337" /><g
       id="path5-6"
       style="fill:#000000;fill-opacity:0.25;stroke-width:1.10583"
       transform="matrix(0.90429729,0,0,0.90429729,9.6406953,10.3063)"><path
         style="baseline-shift:baseline;display:inline;overflow:visible;vector-effect:none;fill:#000000;fill-opacity:0.25;stroke-width:1.10583;stroke-linecap:round;enable-background:accumulate;stop-color:#000000;stop-opacity:1"
         d="M 68.262501,21.695832 V 127.52915"
         id="path12-6" /><path
         id="path13-7"
         style="baseline-shift:baseline;display:inline;overflow:visible;vector-effect:none;fill:#000000;fill-opacity:0.25;stroke-width:1.22286;stroke-linecap:round;enable-background:accumulate;stop-color:#000000;stop-opacity:1"
         d="m 68.343634,4.3656251 c -7.65796,6e-7 -17.521065,8.4281439 -25.383981,21.2881069 -5.495691,8.988316 -1.683603,24.476681 1.992643,34.211866 C 41.399636,56.035809 37.440209,48.204591 34.863506,44.072246 27.06516,66.915467 33.804326,90.770322 53.689747,99.401687 47.6479,99.050339 42.493519,97.354951 37.462314,95.663931 43.183926,106.5607 52.639924,113.8212 64.95521,114.94441 l -2.941167,12.58476 c 3.59e-4,1.82606 1.480199,3.30641 3.306258,3.30677 1.826821,7.2e-4 3.308483,-1.47995 3.308842,-3.30677 l 2.941167,-12.57753 c 14.997642,-1.36421 26.543616,-12.24628 30.964,-28.559495 -4.725619,2.945491 -6.947936,3.510424 -11.740883,3.719153 16.489163,-8.627478 15.743003,-27.702614 11.865423,-46.303635 -2.06242,5.04229 -4.632283,14.354099 -7.987107,17.102316 2.860251,-7.539091 6.629747,-15.082093 3.388424,-28.267526 C 91.147971,14.650253 77.43508,4.3656244 68.343634,4.3656251 Z"
         sodipodi:nodetypes="ssccccccccccccccs" /></g><g
       id="path5"
       style="opacity:1;stroke-width:1.10583"
       transform="matrix(0.90429729,0,0,0.90429729,5.936528,6.6021328)"><path
         style="baseline-shift:baseline;display:inline;overflow:visible;vector-effect:none;fill:#f0f0f0;stroke-width:1.10583;stroke-linecap:round;enable-background:accumulate;stop-color:#000000;stop-opacity:1"
         d="M 68.262501,21.695832 V 127.52915"
         id="path12" /><path
         id="path13"
         style="baseline-shift:baseline;display:inline;overflow:visible;vector-effect:none;fill:#f0f0f0;fill-opacity:1;stroke-width:1.22286;stroke-linecap:round;enable-background:accumulate;stop-color:#000000;stop-opacity:1"
         d="m 68.343634,4.3656251 c -7.65796,6e-7 -17.521065,8.4281439 -25.383981,21.2881069 -5.495691,8.988316 -1.683603,24.476681 1.992643,34.211866 C 41.399636,56.035809 37.440209,48.204591 34.863506,44.072246 27.06516,66.915467 33.804326,90.770322 53.689747,99.401687 47.6479,99.050339 42.493519,97.354951 37.462314,95.663931 43.183926,106.5607 52.639924,113.8212 64.95521,114.94441 l -2.941167,12.58476 c 3.59e-4,1.82606 1.480199,3.30641 3.306258,3.30677 1.826821,7.2e-4 3.308483,-1.47995 3.308842,-3.30677 l 2.941167,-12.57753 c 14.997642,-1.36421 26.543616,-12.24628 30.964,-28.559495 -4.725619,2.945491 -6.947936,3.510424 -11.740883,3.719153 16.489163,-8.627478 15.743003,-27.702614 11.865423,-46.303635 -2.06242,5.04229 -4.632283,14.354099 -7.987107,17.102316 2.860251,-7.539091 6.629747,-15.082093 3.388424,-28.267526 C 91.147971,14.650253 77.43508,4.3656244 68.343634,4.3656251 Z"
         sodipodi:nodetypes="ssccccccccccccccs" /></g></g></svg>
