<?xml version="1.0" encoding="UTF-8" standalone="no"?>
<!-- Created with Inkscape (http://www.inkscape.org/) -->

<svg
   width="20"
   height="20"
   viewBox="0 0 5.2916665 5.2916666"
   version="1.1"
   id="svg8"
   inkscape:version="1.4.3 (0d15f75, 2025-12-25)"
   sodipodi:docname="Shuttle1.svg"
   xmlns:inkscape="http://www.inkscape.org/namespaces/inkscape"
   xmlns:sodipodi="http://sodipodi.sourceforge.net/DTD/sodipodi-0.dtd"
   xmlns="http://www.w3.org/2000/svg"
   xmlns:svg="http://www.w3.org/2000/svg"
   xmlns:rdf="http://www.w3.org/1999/02/22-rdf-syntax-ns#"
   xmlns:cc="http://creativecommons.org/ns#"
   xmlns:dc="http://purl.org/dc/elements/1.1/">
  <defs
     id="defs2" />
  <sodipodi:namedview
     id="base"
     pagecolor="#9a9a9a"
     bordercolor="#666666"
     borderopacity="1.0"
     inkscape:pageopacity="0"
     inkscape:pageshadow="2"
     inkscape:zoom="31.659099"
     inkscape:cx="5.4328773"
     inkscape:cy="10.439337"
     inkscape:document-units="px"
     inkscape:current-layer="ForwardPlayback"
     showgrid="true"
     units="px"
     inkscape:window-width="1351"
     inkscape:window-height="928"
     inkscape:window-x="478"
     inkscape:window-y="55"
     inkscape:window-maximized="0"
     inkscape:pagecheckerboard="0"
     inkscape:showpageshadow="2"
     inkscape:deskcolor="#d1d1d1">
    <inkscape:grid
       type="xygrid"
       id="grid4526"
       empspacing="10"
       originx="0"
       originy="0"
       spacingy="1"
       spacingx="1"
       units="px" />
  </sodipodi:namedview>
  <metadata
     id="metadata5">
    <rdf:RDF>
      <cc:Work
         rdf:about="">
        <dc:format>image/svg+xml</dc:format>
        <dc:type
           rdf:resource="http://purl.org/dc/dcmitype/StillImage" />
      </cc:Work>
    </rdf:RDF>
  </metadata>
  <g
     inkscape:label="Layer 1"
     inkscape:groupmode="layer"
     id="layer1"
     transform="translate(0,-291.70831)">
    <g
       id="ForwardPlayback"
       inkscape:label="#g4524"
       inkscape:export-xdpi="96"
       inkscape:export-ydpi="96">
      <path
         id="path222"
         style="fill:#f0f0f0;fill-opacity:1;stroke-width:0.264583"
         d="M 208.70108 204.9593 A 1.8520833 1.8520851 0 0 0 208.15881 206.26892 A 1.8520833 1.8520851 0 0 0 210.0107 208.12081 A 1.8520833 1.8520851 0 0 0 211.86258 206.26892 A 1.8520833 1.8520851 0 0 0 210.0107 204.41704 A 1.8520833 1.8520851 0 0 0 208.70108 204.9593 z M 209.63652 204.83653 A 0.52916664 0.52916664 0 0 1 210.0107 204.68159 A 0.52916664 0.52916664 0 0 1 210.53981 205.2107 A 0.52916664 0.52916664 0 0 1 210.0107 205.73981 A 0.52916664 0.52916664 0 0 1 209.48159 205.2107 A 0.52916664 0.52916664 0 0 1 209.63652 204.83653 z "
         transform="rotate(45)" />
    </g>
  </g>
</svg>
